<?xml version="1.0" encoding="utf-8"?>
<!-- Generator: Adobe Illustrator 16.0.0, SVG Export Plug-In . SVG Version: 6.00 Build 0)  -->
<!DOCTYPE svg PUBLIC "-//W3C//DTD SVG 1.1//EN" "http://www.w3.org/Graphics/SVG/1.1/DTD/svg11.dtd">
<svg version="1.1" xmlns="http://www.w3.org/2000/svg" xmlns:xlink="http://www.w3.org/1999/xlink" x="0px" y="0px"
	 width="292.084px" height="92.691px" viewBox="0 0 292.084 92.691" enable-background="new 0 0 292.084 92.691"
	 xml:space="preserve">
<g id="Layer_1">
	<g>
		<path fill="#70E5D9" d="M278.327,26.694v37.485h-14.062V26.694H278.327z M271.333,9.963c1.904,0,3.553,0.671,4.943,2.012
			c1.393,1.341,2.088,2.926,2.088,4.756c0,1.955-0.658,3.56-1.975,4.813c-1.316,1.253-3.002,1.88-5.057,1.88
			c-2.056,0-3.74-0.626-5.057-1.88c-1.316-1.253-1.975-2.857-1.975-4.813c0-1.83,0.695-3.415,2.088-4.756
			C267.781,10.634,269.428,9.963,271.333,9.963z"/>
	</g>
	<g>
		<path fill="#70E5D9" d="M22.852,47.41v13.781H16.98v13.5H3.832V44.914c0-3.352,0.574-6.21,1.723-8.578
			c1.453-3.023,3.662-5.49,6.627-7.4c2.965-1.91,6.052-2.865,9.264-2.865l1.406,0.035v13.781c-0.305-0.023-0.527-0.035-0.668-0.035
			c-1.665,0-2.948,0.551-3.85,1.652c-0.902,1.102-1.354,2.672-1.354,4.711v1.195H22.852z"/>
		<path fill="#70E5D9" d="M41.766,39.64v35.051H28.617V39.64H41.766z M35.227,23.996c1.781,0,3.322,0.627,4.623,1.881
			c1.301,1.254,1.951,2.737,1.951,4.447c0,1.828-0.615,3.328-1.846,4.5c-1.23,1.172-2.807,1.758-4.729,1.758
			c-1.922,0-3.498-0.585-4.729-1.758c-1.23-1.172-1.846-2.672-1.846-4.5c0-1.71,0.65-3.193,1.951-4.447
			C31.904,24.623,33.445,23.996,35.227,23.996z"/>
		<path fill="#70E5D9" d="M80.754,74.691H67.605V54.898c0-2.016-0.832-3.023-2.496-3.023c-1.641,0-2.461,1.008-2.461,3.023v19.793
			H49.5V55.144c0-4.57,1.512-8.42,4.535-11.549s6.727-4.693,11.109-4.693c5.015,0,9.035,1.816,12.059,5.449
			c2.367,2.836,3.551,6.785,3.551,11.848V74.691z"/>
		<path fill="#70E5D9" d="M110.004,26.703h13.148v29.215c0,5.367-1.406,9.738-4.219,13.113c-1.617,1.946-3.674,3.493-6.17,4.641
			s-5.057,1.723-7.682,1.723c-5.227,0-9.633-1.758-13.219-5.273s-5.379-7.828-5.379-12.938c0-4.945,1.781-9.223,5.344-12.832
			c3.563-3.609,7.781-5.414,12.656-5.414c0.773,0,1.945,0.07,3.516,0.211v14.484c-1.078-0.844-2.157-1.266-3.234-1.266
			c-1.359,0-2.526,0.498-3.498,1.494c-0.973,0.997-1.459,2.197-1.459,3.604c0,1.359,0.504,2.526,1.512,3.498
			c1.007,0.973,2.215,1.459,3.621,1.459c3.375,0,5.063-2.332,5.063-6.996V26.703z"/>
		<path fill="#A89A85" d="M149.554,61.542v13.605c-1.078,0.188-2.063,0.281-2.953,0.281c-5.273,0-9.668-1.734-13.184-5.203
			c-3.515-3.468-5.273-7.816-5.273-13.043c0-5.085,1.775-9.398,5.326-12.938c3.551-3.539,7.869-5.309,12.955-5.309
			c5.672,0,10.143,1.658,13.412,4.975c3.27,3.317,4.904,7.846,4.904,13.588v17.191h-13.148V58.449c0-1.851-0.451-3.328-1.354-4.43
			c-0.902-1.102-2.115-1.652-3.639-1.652c-1.383,0-2.578,0.504-3.586,1.512c-1.008,1.008-1.512,2.203-1.512,3.586
			c0,1.454,0.457,2.649,1.371,3.586c0.914,0.938,2.074,1.406,3.48,1.406C147.503,62.457,148.57,62.152,149.554,61.542z"/>
		<path fill="#46CCCC" d="M193.71,47.796h13.605c2.93,3.633,4.395,7.465,4.395,11.496c0,4.688-1.717,8.625-5.15,11.813
			c-3.434,3.188-7.658,4.781-12.674,4.781c-6.516,0-12.047-2.473-16.594-7.418c-4.547-4.945-6.82-10.969-6.82-18.07
			c0-7.125,2.314-13.055,6.943-17.789c4.629-4.734,10.412-7.102,17.35-7.102c2.367,0,4.992,0.48,7.875,1.441v14.273
			c-2.25-1.055-4.301-1.582-6.152-1.582c-3.352,0-6.088,1.043-8.209,3.129c-2.121,2.086-3.182,4.793-3.182,8.121
			c0,3.398,0.984,6.094,2.953,8.086c1.969,1.992,4.629,2.988,7.98,2.988c2.133,0,3.199-0.621,3.199-1.863
			c0-0.937-0.703-1.406-2.109-1.406h-3.41V47.796z"/>
		<path fill="#46CCCC" d="M251.226,26.703v31.113c0,5.484-1.635,9.867-4.904,13.148c-3.27,3.282-7.623,4.922-13.061,4.922
			c-5.414,0-9.557-1.594-12.428-4.781c-2.871-3.187-4.307-7.77-4.307-13.746V26.703H230.8v30.621c0,2.93,1.043,4.395,3.129,4.395
			c2.016,0,3.023-1.464,3.023-4.395V26.703H251.226z"/>
	</g>
	<g>
		<path fill="#46CCCC" d="M250.449,74.656l13.57-21.34V26.667h14.273v26.648l13.676,21.34h-14.484l-6.188-9.879l-6.645,9.879
			H250.449z"/>
	</g>
	<g>
		<path fill="#70E5D9" d="M278.328,26.574v26.82h-14.351v-26.82H278.328z"/>
	</g>
	<rect x="3" y="80.035" fill="#A89A85" width="289.084" height="3.44"/>
</g>
<g id="Layer_2">
</g>
</svg>
